# xmcd
#
# Track frame offsets:
#	150
#	10886
#	21909
#	35964
#	49513
#	66131
#	78507
#	89803
#	101950
#	117691
#
# Disc length: 1765 seconds
#
# Revision: 0
# Processed by: cddbd v1.5.2PL0 Copyright (c) Steve Scherf et al.
# Submitted via: EasyCDDAExtractor 11.1.0.1
#
DISCID=8e06e30a
DTITLE=George Ashdown and the Dewberrys - Crazy dreams
DYEAR=1900
DGENRE=country
TTITLE0=Fallen fallen
TTITLE1=Crazy dreams
TTITLE2=Faded love
TTITLE3=Stranger in the city
TTITLE4=The rose in the colored valley
TTITLE5=Is it love
TTITLE6=Swinging doors
TTITLE7=Six days on the road
TTITLE8=Cabin by the sea
TTITLE9=Dark side of town
EXTD=
EXTT0=
EXTT1=
EXTT2=
EXTT3=
EXTT4=
EXTT5=
EXTT6=
EXTT7=
EXTT8=
EXTT9=
PLAYORDER=
